<svg xmlns="http://www.w3.org/2000/svg" viewBox="0 0 1485.23 1094.15"><defs><style>.cls-1{fill:#ef3e23;}.cls-2{fill:#f78f1e;}.cls-3{fill:#f89a1d;}.cls-4{fill:#ee3124;}.cls-5{fill:#ee2e24;}.cls-6{fill:#ee3324;}.cls-7{fill:#ee3224;}.cls-8{fill:#ef3824;}.cls-9{fill:#ef4423;}.cls-10{fill:#ef3f23;}.cls-11{fill:#ef3924;}.cls-12{fill:#ef3d23;}.cls-13{fill:#f57f20;}.cls-14{fill:#ee3624;}.cls-15{fill:#f8971d;}.cls-16{fill:#f68a1f;}.cls-17{fill:#ef4323;}.cls-18{fill:#faa21b;}.cls-19{fill:#ee3424;}.cls-20{fill:#ef4223;}.cls-21{fill:#f47a20;}.cls-22{fill:#f99c1c;}.cls-23{fill:#f5841f;}.cls-24{fill:#f8981d;}.cls-25{fill:#f58120;}.cls-26{fill:#f6871f;}.cls-27{fill:#faa61a;}.cls-28{fill:#f68c1f;}.cls-29{fill:#f99d1c;}.cls-30{fill:#ee3724;}.cls-31{fill:#f8951d;}.cls-32{fill:#f89a1c;}.cls-33{fill:#f7911e;}.cls-34{fill:#f6861f;}.cls-35{fill:#f58220;}.cls-36{fill:#f99f1b;}.cls-37{fill:#f47c20;}.cls-38{fill:#f5851f;}.cls-39{fill:#f9a25b;}.cls-40{fill:#f78e46;}.cls-41{fill:#f47721;}.cls-42{fill:#fba819;}.cls-43{fill:#ee2b24;}.cls-44{fill:#fdc88a;}.cls-45{fill:#ef4723;}.cls-46{fill:#fbad18;}.cls-47{fill:#ef3b24;}</style></defs><g id="Layer_2" data-name="Layer 2"><g id="Layer_1-2" data-name="Layer 1"><path class="cls-1" d="M875.69,155.56c17.52,4.76,33.74,12.7,50,20.49,14,6.71,11.66,8.38,23.79-4s24.47-24.25,37.14-36.77c-3.27-3.44-6.95-5.18-10.41-7.12A486.38,486.38,0,0,0,875.66,85.88c-1.42-.42-2.92-.54-4-1.71,2.57-4.53,3.24-9.42,3.15-14.57-.31-17.77.63-35.56-.9-53.31C896.42,20.66,918,28.18,939.29,36.4c53.08,20.49,101.53,49.07,146,84.49,6.06,4.83,6.09,4.93.45,10.57Q1026.35,190.76,967,250c-3.37,3.36-6.63,6.82-10,10.2-5.46,5.48-5.51,5.51-11.66,1.14a356.84,356.84,0,0,0-61.82-35.26c-3.22-1.42-6.83-2.12-9.54-4.61C875.91,199.56,873.46,177.49,875.69,155.56Z"/><path class="cls-2" d="M588.27,580.22c.11-3.27.3-6.54.3-9.81q0-126.79,0-253.59a129.66,129.66,0,0,0-.45-13.38c-.84-8-3.07-10.16-10.91-11.59-1.17-.21-2.39-.21-3.53-.53-3.66-1-4.69-3.39-2.57-6.66a21.89,21.89,0,0,1,4.86-5.17c11.55-9.07,24.57-15.75,38.06-21.18,6.79-2.74,14.61-2.48,22.06-1.3a19,19,0,0,1,11.9,7.31c6.87,8.51,11.32,17.92,11.31,29.27q-.15,141.09-.06,282.17c0,1.49.08,3,.12,4.46-2.53,3.25-6.25,3.14-9.75,3.18q-25.79.27-51.57,0C594.52,583.36,590.8,583.48,588.27,580.22Z"/><path class="cls-3" d="M880.36,332.52c-1.48.16-3.13.26-3.25,2.2-.17,2.67-.14,5.35-.14,8q0,112.85-.05,225.71c0,3.49,1,7.14-1,10.47-8.69,4.63-18.07,1.42-27.09,2.42-9.71-1.1-19.81,2.33-29.23-2.45-2.64-4-2.19-8.55-2.19-13q-.07-147.61,0-295.22c0-4.72-.46-9.61,2.9-13.64,18.81-.45,37.66-2.34,56.31,1.83,3.45.77,6.87,1.63,9.78,3.8a7.33,7.33,0,0,1,1.41,5c-.75,18.56.1,37.13-.55,55.68C887.1,327.46,888.44,333.89,880.36,332.52Z"/><path class="cls-4" d="M604.13,18.09l1.67-.29c4.18.27,4.36,3.72,4.45,6.45.64,18.35.54,36.71.08,55.07a9.94,9.94,0,0,1-2.6,6.47C596,90,584.21,93.86,572.61,98.34c-51.73,20-99,47.58-140.95,83.94-7.4,6.4-7.71,6.34-14.42-.4q-16.68-16.75-33.45-33.43c-6.58-6.56-6.7-8.53,0-14.27C446,80.7,516.41,42.41,595.37,20a27.7,27.7,0,0,1,4.4-.54C601.22,19,602.8,18.94,604.13,18.09Z"/><path class="cls-5" d="M313.21,704.2Q313.09,638.62,313,573c0-16.65.16-33.31.24-50,18.49,7.09,32.07,20,42.65,36.32a69.45,69.45,0,0,1,6.79,12.5c2.55,6.63,7,8.63,13.83,8.58,28-.24,55.93-.11,83.89-.08,3.26,0,6.52.23,9.78.36,2.48,2.56,2.76,5.82,2.8,9.1q.24,24,0,47.94c0,3.31-.57,6.49-2.79,9.14-20.45,1.11-40.92,1-61.34.15-13.08-.54-26.05,1-39.08.46-4-.18-4.79,2.71-6,5.38a103.54,103.54,0,0,1-23.42,33.24C332.34,693.66,323.76,700.45,313.21,704.2Z"/><path class="cls-6" d="M686.46,200.46c-13.24,3.13-26.62,5.77-39.7,9.49a343.51,343.51,0,0,0-122.5,63.35c-2.76,2.23-5.59,4.37-9.34,7.28-13.13-13.42-26.28-26.73-39.24-40.22-3.69-3.86-3.5-6.17.46-9.8,3.72-3.41,7.75-6.48,11.74-9.58,56.64-44.13,120.33-72.07,191.35-83.1a67,67,0,0,1,7.1-.36c2.11,2.35,2.72,5.25,2.76,8.27q.35,23.16,0,46.32A13.73,13.73,0,0,1,686.46,200.46Z"/><path class="cls-7" d="M470.19,646.92q0-33.09,0-66.18c11.54-.13,23.07-.33,34.61-.37q41.73-.14,83.48-.15,35.55.72,71.09,0l3.75.33c2.34,2.61,2.77,5.84,2.8,9.14q.24,24,0,48.07c0,3.32-.57,6.5-2.8,9.16-2.35.18-4.7.51-7.06.51q-89.4,0-178.81,0C474.89,647.44,472.54,647.1,470.19,646.92Z"/><path class="cls-8" d="M663.11,646.92V580.55c3.25-.16,6.51-.46,9.77-.46q60.26.06,120.51.19c8.4.29,16.59-3.13,25.07-1.46,10,2,20.06.41,30.09.92,2.21.24,4.66-.7,6.52,1.31,1.79,2.59,1.94,5.58,2,8.55.14,15.75.11,31.5,0,47.25,0,3.6-.34,7.14-2.82,10.07-2.35.18-4.7.51-7,.51q-88.52,0-177,0C667.81,647.44,665.46,647.1,663.11,646.92Z"/><path class="cls-9" d="M1174.15,757.48c7.15-17.27,15.26-34.14,21.29-51.88A495.12,495.12,0,0,0,1210,655.09c1.88-8.35,2-8.36,10.62-8.38q25.9,0,51.81,0c8.14,0,8.24.16,6.67,8a538,538,0,0,1-61.67,163.62c-11.43,19.83-23.43,39.31-38.08,57-5.6-3.12-4.47-8.67-4.5-13.52-.17-32.12-.07-64.26-.08-96.39C1174.75,762.74,1175.27,760.06,1174.15,757.48Z"/><path class="cls-10" d="M1094,844.88c-13.7-13.5-27.47-26.92-41.09-40.5q-32.07-32-64-64.2c-1.66-1.66-3.11-3.52-4.66-5.28-1.49-26-.57-52-.53-78,0-4.42.51-8.94,4.43-12.06,1.36,1.13,2.81,2.14,4,3.38q61.52,61.47,123,123c1.24,1.24,2.26,2.69,3.38,4a10.84,10.84,0,0,1,1.7,6.75c-1.83,22.17-.39,44.37-.85,66.55a46.58,46.58,0,0,1-.32,7.09c-1.19,6.91-4.2,8.1-9.43,3.54S1100.07,848.78,1094,844.88Z"/><path class="cls-11" d="M686.46,200.46q-.06-31.47-.13-62.94c14.28-3.18,28.83-3.51,43.35-4.05a398.43,398.43,0,0,1,142,20.2,34.26,34.26,0,0,1,4,1.89c1.84,2.89,1.8,6.11,1.79,9.38q-.06,21.65,0,43.3c0,4.77-.45,9.35-3.53,13.26-15.77-4.91-31.19-10.87-47.31-14.75-43.09-10.38-86.52-13.2-130.47-7C693,200.19,689.7,200.23,686.46,200.46Z"/><path class="cls-12" d="M988.23,644.85c-2.41,9.61-1.78,19.41-1.79,29.17,0,17.22,0,34.45,0,51.68,0,3.18.81,6.63-2.07,9.2v-.09c-.06-1.43-1.05-1.88-2.24-2.12-5.54-5.33-11.16-10.57-16.61-16C944.28,695.55,923,674.43,902,653.09c-4.06-4.11-8.15-5.92-14-5.8-11.23.23-22.5.85-33.74-.37v-66c7.2-2.2,14.51-1,21.8-.69,12.43,0,24.86.07,37.29-.13,6.5-.11,12.14,1.21,16.93,6.06,19,19.17,38.07,38.17,57.11,57.25A6.59,6.59,0,0,1,988.23,644.85Z"/><path class="cls-13" d="M296.93,368.08c-5.33,16.65-12.06,32.84-16.33,49.83-1.66,6.62-3.49,13.19-5.12,19.82-2.28,9.28-2.58,9.65-11.76,9.68q-24.53.07-49,0c-9.35,0-10.27-1.21-8.27-10.5a561.13,561.13,0,0,1,42.05-124.54,535.87,535.87,0,0,1,35.35-62.84c1.12-1.71,2.48-3.27,3.73-4.9,1.5-.6,1.17-2.46,2.28-3.34l.05-.08c.51-.7,1.29-1.21,1.53-2.11l-.13.1c2.92-1.4,4.5.18,5.53,2.62a20.36,20.36,0,0,1,1.15,7.9c0,37.72.34,75.46-.18,113.18C297.74,364.66,298,366.49,296.93,368.08Z"/><path class="cls-14" d="M607.73,85.79c0-19.61,0-39.21-.05-58.81,0-3.12,1.19-6.63-1.88-9.18,14.22-5.27,29.16-7.57,44-10.12,29.52-5.06,59.28-8,89.29-7.65,1.48,0,3,.18,4.43.28,2.6,2.51,2.75,5.81,2.78,9.06q.27,23.94,0,47.89c0,3.31-.61,6.48-2.8,9.14-15.57,1.95-31.29,1.37-46.92,2.94a499.81,499.81,0,0,0-83.65,15.53C611.24,85.33,609.46,85.49,607.73,85.79Z"/><path class="cls-11" d="M743.49,66.4V.31A478.8,478.8,0,0,1,850.72,11c1.7,1.17,3.95.11,5.61,1.39l3.33.43c1.31.72,2.83.74,4.21,1.24l2.92.47c1.62,1.28,3.91.06,5.48,1.48a1.34,1.34,0,0,1,1.64.26c1.88,1.86,3.66,3.52,3.63,6.7q-.25,27.67,0,55.35c0,4.35-1.93,5.88-5.86,5.83l-.76.12-.61-.45c-1.57-1.47-3.94-.15-5.52-1.58l-.86.14-.77-.42c-1.34-.85-2.91-.91-4.38-1.33L856,80.17c-1.63-1.29-3.92-.1-5.54-1.48-10.51-1.84-21-3.65-31.55-5.53-23.48-4.18-47.23-5.31-71-6.22C746.42,66.88,745,66.58,743.49,66.4Z"/><path class="cls-15" d="M820.3,257.07V578.58a2.94,2.94,0,0,1-2.61,1.09c-3.86-.4-7.87.94-11.63-.9-.11-3.56-.31-7.12-.32-10.69q0-112.5,0-225v-9.92c-3.79-.63-6.76.89-9.75,1.87-14.11,4.64-28.18,9.41-42.25,14.15-2,.66-3.86,1.59-5.87,2.1-6.69,1.7-10.57-.73-11.07-7.62-1-13.59.39-27,7.9-38.7,16.37-25.57,40-40.91,69.41-47.64C816.08,256.87,818.23,257.14,820.3,257.07Z"/><path class="cls-16" d="M443.17,919.79c9.29-10.86,19.85-20.48,29.94-30.55,10.73-10.71,20.95-21.92,32.44-31.85a3.8,3.8,0,0,0,2-1.95l-.1,0c5.91.22,6.3,4.9,6.39,8.88.53,24.25.39,48.49.11,72.74,0,3-1.49,5.69-2.52,8.46q-5.11,5.33-10.25,10.66c-2.13,2.2-1.77,4.12.7,5.71,3.15,2,6.34,4,9.51,6,2.23,9.08.61,18.29.82,27.44.27,12.15.47,24.33-.2,36.48-.19,3.49.69,9-6.15,7.87a363.48,363.48,0,0,1-62.65-35.61A723.33,723.33,0,0,0,443.17,919.79Z"/><path class="cls-17" d="M1256.17,248c0,18.7,0,37.41,0,56.11,0,8.36-.11,8.46-8.37,8.47q-61.9.06-123.8,0c-3-3.44-2.77-7.69-2.8-11.82-.09-12.45,0-24.91,0-37.36-.05-11.94-.36-12.23-12.65-12.29-11,0-22,.1-32.91-.07-3.8-.05-7.82.34-10.82-2.87,2.37-1.71,5.11-1.34,7.76-1.33q90.08.29,180.15.63A25,25,0,0,1,1256.17,248Z"/><path class="cls-10" d="M1064.75,248.22c16.89,0,33.78.05,50.67.13,8.42,0,8.51.1,8.54,8.27.06,18.67,0,37.34,0,56-7.62,0-15.23,0-22.84,0-2.56,0-5.33-.7-7.48,1.5-3.8,1.24-6.65,3.79-9.39,6.57q-17.88,18.11-35.87,36.1c-2.06,2.06-4.24,4-7.06,6.66A372.16,372.16,0,0,0,1001,310c1.29-3.18,3.83-4.89,5.9-7q24.84-25,49.8-49.94C1059,250.86,1060.94,248,1064.75,248.22Z"/><path class="cls-11" d="M809.87,751.89c0,20.52.11,41.05,0,61.57-.14,18.87-3.9,22.53-22.47,22.6-8.62,0-17.25.07-25.87,0a62.49,62.49,0,0,1-8.84-.82c-7.46-1.16-11.52-5.75-12.39-13.1a99.32,99.32,0,0,1-.62-11.57q-.06-62,0-124c0-1.78,0-3.57.07-5.35,0-2.21,1.25-3.11,3.36-3.1,5.36,0,10.71.05,16.06,0,3.12,0,4.17,1.55,4,4.43-.09,2.08,0,4.17,0,6.25V802.93c0,2.08.09,4.16,0,6.24-.12,2.66,1.12,3.8,3.7,3.66.3,0,.6,0,.89,0,5.88-.37,13.16,2.39,17.27-1.12,3.9-3.33,1.27-10.64,1.29-16.17.14-35.69.07-71.39.08-107.08,0-2.38,0-4.76,0-7.14,0-2.18,1.25-3.22,3.31-3.24,5.65,0,11.31,0,17,0,2.23,0,3.13,1.23,3.14,3.33s0,4.16,0,6.24Q809.89,719.77,809.87,751.89Z"/><path class="cls-18" d="M988.43,959.39c9.84-6.62,19.75-13.15,29.5-19.89,12.72-8.8,24.76-18.49,36.6-28.44,6.3-5.3,6.72-5.24,12.44.4,12.06,11.9,24.13,23.8,36.07,35.82,4.88,4.91,4.93,6.4-.06,10.83a511.65,511.65,0,0,1-108.54,74.28,2.83,2.83,0,0,1-.89.1c-4.92-3.44-4.35-8.74-4.45-13.68C988.71,999,989.65,979.18,988.43,959.39Z"/><path class="cls-19" d="M627.53,730.48c0-8.48-.13-16.21.06-23.93.08-3.63-.83-5.62-4.91-5.44-4.75.21-9.51.1-14.27,0-2.89,0-4.47,1.12-4.26,4.21.08,1.18,0,2.38,0,3.57q0,48.16,0,96.35c0,8.07-.62,7.55,7.85,7.55,3.56,0,7.15-.21,10.7.06,4.07.31,5-1.59,4.89-5.24-.21-5.64,0-11.3-.08-16.95,0-2.45,0-4.85,2.6-6.07,6.62-3.08,12.74-7.26,20.32-9.73,0,16.06.51,31.44-.19,46.76-.43,9.25-5,13.52-14.3,14a374.52,374.52,0,0,1-39.22,0c-10.65-.58-14.59-5.23-15.73-15.76a73.86,73.86,0,0,1-.33-8q0-55.3,0-110.63a61.23,61.23,0,0,1,.72-10.66c1.4-7.69,4.54-10.75,12.38-11.78a119.17,119.17,0,0,1,15.12-.76c8.61,0,17.27-.22,25.84.45,10.55.81,14.57,5.21,15.82,15.76a41.46,41.46,0,0,1,.3,5.34c-.09,6.53-.11,13.06-.53,19.57C650.22,720.69,634.22,728.32,627.53,730.48Z"/><path class="cls-20" d="M1094,844.88c4.93-.41,7,3.73,10.22,6.2,3.8,2.95,6.39,10.22,11.12,8.31,3.61-1.45,1.31-8.61,1.39-13.21.21-13.34.06-26.68.08-40,0-10.33-.52-20.7,1.8-30.89,8.5,6.92,15.57,15.32,23.52,22.82,5.29,5,6,5,9.79-1.23,5.09-8.29,10-16.73,14.9-25.11,1.06-.92.73-2.57,1.83-3.47l0-.08a4,4,0,0,0,1.46-2.71l-.07-.58.48-.33A4.07,4.07,0,0,0,1172,762a.65.65,0,0,1,.42-1,4.08,4.08,0,0,0,1.37-2.56l-.08-.6.48-.36c4.49,2.3,3.38,6.52,3.39,10.25q.07,48.16,0,96.32c0,3.84-.45,7.76,1.76,11.26-5.75,9.37-13.11,17.49-20,26-2.79,3.42-5.9,3.65-9.09.48-2.94-2.92-5.85-5.87-8.77-8.82Z"/><path class="cls-21" d="M143.28,903.75V723.62c19.41,8.24,33.36,22.22,42.95,40.78,2.1,5.76.93,11.7,1,17.56.09,23.66,0,47.31.05,71,0,3.5.26,7.1-.86,10.54C176.85,882.07,162.21,895.2,143.28,903.75Z"/><path class="cls-22" d="M853.7,1014.47c16.86-5.35,34.14-9.38,50.68-15.77,12.39-4.78,24.73-9.68,37.1-14.52,4.27.09,4.49,3.59,4.54,6.3.38,21.33,1,42.67-.15,64l0-.12c-1.05-.21-1.49.77-2.22,1.16-27.09,11.42-54.93,20.37-83.88,25.73-3.42-3.26-2.82-7.58-2.86-11.63-.15-13.26-.13-26.52,0-39.78C856.88,1024.45,856.24,1019.29,853.7,1014.47Z"/><path class="cls-23" d="M343.47,201.76c10.12,8.6,19.07,18.41,28.42,27.8C383.32,241,395.27,252,406,264.24c2.17,9.72.76,19.56.9,29.34.24,15.76.33,31.53-.1,47.28-.12,4.65.88,10.74-6.7,11.29-15.73-14.41-30.57-29.73-45.65-44.81q-5.65-5.65-11.24-11.4c-1.9-1.95-3.84-3.75-6.87-3.38,4.35-15.17,2-30.71,2.47-46.1.31-11.3-.11-22.62.16-33.93C339,208.45,338.72,204,343.47,201.76Z"/><path class="cls-24" d="M853.7,1014.47c5.37-.2,6,3,6,7.47-.15,16.52-.07,33,0,49.58,0,3.24.07,6.49.11,9.74-14.46,4.45-29.43,6.34-44.34,8.28-13.76,1.8-27.55,3.91-41.52,3.47-2.12-2-2.63-4.65-2.64-7.35-.06-19.59-.77-39.19.33-58.78,6.5-2.51,13.43-1.4,20.13-2.27,19.34-2.51,38.62-5.22,57.62-9.74A30.36,30.36,0,0,1,853.7,1014.47Z"/><path class="cls-25" d="M343.47,201.76c-2.27,3.45-1.91,7.35-1.91,11.2,0,22.85-.1,45.69.1,68.53,0,4.85-.78,8.73-5.37,11.07-14.18,21.64-25.6,44.73-35.88,68.43-1,2.4-1.43,5.17-3.48,7.09-2.2-8.73-1.82-17.65-1.81-26.54q0-46.87-.05-93.75c0-3.26,1.55-7.55-3.8-8.59,9.8-16.31,21.77-31,34-45.53,3.63-4.33,6.27-4.2,10.51-.33a81.58,81.58,0,0,1,5.88,6.56,5.85,5.85,0,0,0,1.89,1.91Z"/><path class="cls-26" d="M402,772.94l43.13-44.42a396.71,396.71,0,0,0,41.61,54.9l-46.06,45.22c-2.54,2.5-5.4,4.78-7.49,7.61-6.94,9.37-16,12.66-27.29,10.39-3.51-4-2.64-8.88-2.77-13.53C402.53,813.06,404.22,793,402,772.94Z"/><path class="cls-27" d="M1142.16,407.42c3.2,1.66,3.27,4.6,3.27,7.67q0,66,0,132c0,2.64.39,5.46-2.48,7.12a1.32,1.32,0,0,1-1.2-1,1.7,1.7,0,0,1-1.23-1.24l-.35-.35a2.17,2.17,0,0,1-1.42-1.42c-9.15-7.92-15.56-17.93-20.17-28.88-2.4-5.7-5.48-7.71-11.3-6.91a61.19,61.19,0,0,1-8.88,0c-7.18-.12-7.29-.12-8-7.37a329.47,329.47,0,0,0-8.45-47.17c-1-3.93-2.68-7.77-2.58-12.94,9.56,0,18.64-.14,27.72,0,5.77.12,9.37-2.24,11.72-7.56,4.09-9.25,9.15-17.95,16.54-25.06a1.82,1.82,0,0,1,1.23-1.28l.26-.3a3.42,3.42,0,0,1,1.51-1.59l.21-.21a4,4,0,0,1,1.58-1.59l.19-.19a3.79,3.79,0,0,1,1.6-1.55Z"/><path class="cls-28" d="M511.46,945.56q-.09-40-.19-80c0-3.81.71-7.91-3.79-10,7.34-9,16.22-16.42,24.1-24.85,2.75-3,5.2-2.91,8.41-.48,11.37,8.56,23.83,15.46,35.83,23.06.56,1,1.42,2.06,1.54,3.18,2.12,20.92,1.35,41.88.38,62.83-.13,2.77-1.41,6.08-5.72,4.37-7.22-1.93-13.58-5.79-20-9.29-4.53-2.45-7.34-1.54-10.82,1.91C531.26,926,522.07,936.5,511.46,945.56Z"/><path class="cls-28" d="M505.89,1039.73c4.91-.83,3.53-4.74,3.54-7.7.1-17.65.07-35.31,0-53,0-3.84-.18-7.68,1.95-11.12,17.54,8.25,34.66,17.42,52.79,24.4,3.84,1.48,7.58,3.2,11.36,4.81,2.25,3,2.79,6.48,2.8,10.12,0,15.74.26,31.49-.13,47.23-.12,4.76.52,10.48-6.26,12-10.47-2.1-20.14-6.5-30-10.42C529.72,1051.22,517.31,1046.54,505.89,1039.73Z"/><path class="cls-29" d="M880.89,867.81c12.18-6.49,24.7-12.28,36.87-18.81a184.67,184.67,0,0,0,23.92-14.75,13.68,13.68,0,0,1,1.82-1.39l1.55-1c4.26,2,4.69,5.93,4.77,9.79.39,18.7.26,37.41.09,56.11a13.84,13.84,0,0,1-2.65,8.35A289.14,289.14,0,0,1,882.79,936c-3.61-1.54-4.26-4.83-4.35-8.12-.49-17.52-.35-35-.09-52.55A13,13,0,0,1,880.89,867.81Z"/><path class="cls-30" d="M689.05,812.84c11.3,0,21.39.13,31.47-.06,3.76-.07,5.44,1,5.17,5a99.72,99.72,0,0,0,0,13.39c.27,4.1-1.61,5-5.25,4.93-16.67-.13-33.34-.2-50,0-4.61.06-5.31-1.87-5.31-5.85q.17-73.23,0-146.46c0-4.09,1-6.12,5.47-5.89A132.89,132.89,0,0,0,684,678c4-.2,5.31,1.69,5.08,5.36-.13,2.08,0,4.17,0,6.25V812.84Z"/><path class="cls-2" d="M572,923.59c4.91-.85,3.49-4.77,3.5-7.71.11-17.36,0-34.72.07-52.08,0-3.53.15-7.06.23-10.59,20.72,10.65,42.24,19.41,64.15,27.28a12.94,12.94,0,0,1,2.69,8.26c.2,16.81.38,33.62-.13,50.42-.1,3.19.36,7.5-4.86,7.88-14.95-2.55-29-8.12-43.07-13.4C586.9,930.77,579,928.16,572,923.59Z"/><path class="cls-31" d="M771.55,1026.88c3.35,2.34,2.25,5.89,2.27,9,.08,19,0,38.07,0,57.11-23.55,2.06-47.09.88-70.63-.06a12.74,12.74,0,0,1-3.29-1.1c2.75-4.46,3.41-9.35,3.36-14.52-.13-14,0-28,0-41.94,0-3.24-.63-6.56,1-9.65,8.55.41,17.1,1.07,25.66,1.17C743.78,1027.09,757.66,1026.91,771.55,1026.88Z"/><path class="cls-2" d="M572,1066.53c3.69-3,3.62-7.18,3.61-11.4q-.06-29,0-58c21.15,7.41,42.74,13.36,64.36,19.21a12.51,12.51,0,0,1,2.74,8.29c.22,16.62.37,33.25-.08,49.87-.15,5.26-.93,10.73-8.76,8.28-17-1.84-33.21-7.18-49.55-11.82C580.11,1069.8,575.64,1069.21,572,1066.53Z"/><path class="cls-32" d="M880.89,867.81q.08,28.91.14,57.81c0,3.56-.3,7.15,1.76,10.34A291.88,291.88,0,0,1,815,954.09c-3.46-3.63-2.63-8.23-2.77-12.56-.54-17.35,1.09-34.75-1.23-52.06,14.64-4.25,29.66-7.08,44-12.28,6.89-2.48,13.84-4.78,20.75-7.16.89-1.13,2.5-.67,3.48-1.59Z"/><path class="cls-33" d="M633.83,1082.8c5.25.27,6.15-2.75,6.12-7.27-.14-19.72,0-39.44,0-59.17,12.59,2,25.17,4.14,37.79,6,8.81,1.3,17.67,2.26,26.52,3.37a13.06,13.06,0,0,1,1.77,6.8c-.06,17.56-.15,35.12,0,52.68.05,4.55-1.65,6.65-6.11,6.63A299.23,299.23,0,0,1,633.83,1082.8Z"/><path class="cls-34" d="M400.05,352.15c4.72-1.89,4-6,4-9.84q0-33.42,0-66.83c0-3.86-.31-7.75,1.87-11.24,15.69,14.15,30,29.73,45.11,44.41,6.4,6.2,13.07,12.11,19.76,18.28a389.36,389.36,0,0,0-37.73,57.95c-6.71-4.87-11.65-10.71-17-16.06S404.71,358.37,400.05,352.15Z"/><path class="cls-33" d="M637.67,947.05c3.31-2.36,2.15-5.89,2.17-9,.12-19.19.1-38.38.13-57.58,14.73,3.17,29.14,7.74,44.09,9.94,6.74,1,13.46,2.09,20.19,3.13,3.5,1.64,4.24,4.86,4.32,8.19.42,16.65.33,33.3,0,50,0,2.7-.55,5.34-2.65,7.35l-1.85,0c-2.49-1.2-5.36-.09-7.86-1.25A233.18,233.18,0,0,1,637.67,947.05Z"/><path class="cls-13" d="M298.69,846.64c-22,.82-44.06.28-66.09-.16-2.59-2.5-2.74-5.8-2.78-9.05q-.27-23.91,0-47.83c0-3.31.56-6.48,2.79-9.12q33-1.23,66.1,0c2.23,2.65,2.77,5.83,2.8,9.14q.22,24,0,47.93C301.45,840.82,301.17,844.09,298.69,846.64Z"/><path class="cls-31" d="M706,959.05q0-27.57,0-55.15c0-3.54.46-7.16-1.72-10.34,22,2.28,44,1.6,66,1.39,2.33,2.62,2.77,5.84,2.8,9.15q.24,23.14,0,46.3c0,3.32-.58,6.51-2.8,9.17-16.41,2.75-32.92,1.44-49.39,1C715.92,960.47,711,959.59,706,959.05Z"/><path class="cls-35" d="M298.69,846.64V780.48q31.26-1.22,62.52,0c2.24,2.64,2.77,5.82,2.8,9.13q.23,24,0,47.93c0,3.27-.32,6.54-2.8,9.09Q330,847.54,298.69,846.64Z"/><path class="cls-22" d="M880.36,332.52c4.69-.51,4.25-4,4.25-7.28,0-16.22.08-32.43-.05-48.64a41.53,41.53,0,0,1,1.83-13.9c27.2,12.33,49.63,29.21,57.76,59.94,1.78,6.75,1.46,13.6,1.21,20.4-.28,7.68-3.86,10.2-11.16,7.86-10.46-3.35-20.79-7.12-31.18-10.68C895.48,337.63,887.91,335.09,880.36,332.52Z"/><path class="cls-36" d="M945.87,1054.49c-2.53-3.29-2.33-7.13-2.33-11,0-16.77.07-33.55,0-50.32,0-3.08,1.15-6.58-2-9l46.95-24.79c4.4.75,3.31,4.24,3.32,7,.07,17.41.11,34.81,0,52.22a42.63,42.63,0,0,0,1.81,13.9A276.74,276.74,0,0,1,945.87,1054.49Z"/><path class="cls-36" d="M947.26,906.08c0-21-.12-42.06-.1-63.09,0-3.88,0-7.7-2.11-11.16,6.64-5,13.65-9.47,19.5-15.44,2.53-2.58,4.75-2.74,7.51.05,12.36,12.48,25,24.72,37.31,37.21,4.37,4.41,4.44,5.9.14,9.46C990,879.25,969.88,894.47,947.26,906.08Z"/><path class="cls-37" d="M232.6,780.48v66c-8.55.1-17.12.63-25.64.18s-14.19,2.6-17,10.85c-.73,2.17-1.63,4.44-3.6,6a48.77,48.77,0,0,1-2.07-15.73c.16-19,.05-37.94.07-56.91,0-8.85-.54-17.74,1.85-26.43,2.55,2.19,3.66,5.31,4.86,8.23,2.19,5.35,5.89,7.43,11.61,7.43C212.67,780.06,222.65,779.38,232.6,780.48Z"/><path class="cls-38" d="M361.21,846.64q0-33.07,0-66.15c7.68-1,15.41-.45,23.1-.42,4.88,0,9.43-.66,13.63-3.17a2.45,2.45,0,0,0,2.3-2.08L400,775a2.07,2.07,0,0,0,2-2l0-.09c4.08,2.26,3.94,6.1,3.93,10q-.07,31.85,0,63.68Q383.55,847.56,361.21,846.64Z"/><path class="cls-15" d="M770.29,959.57V895L811,889.47c4.81.68,4,4.41,4,7.56.05,14.27,0,28.53,0,42.8q0,7.13,0,14.26A187.84,187.84,0,0,1,770.29,959.57Z"/><path class="cls-26" d="M443.17,919.79c4.09.69,3.79,3.81,3.79,6.79q0,18.58,0,37.15,0,16.8,0,33.6c0,2.92.5,6.16-3.71,6.79l.09,0c-.68-1.32-2.52-.81-3.25-2-14.66-8.48-27.64-19.31-41.05-29.52-4.45-3.4-4.45-5.09-.19-9.33,13.43-13.37,27.06-26.54,40.62-39.78a3.8,3.8,0,0,0,2-2l-.16.16a3.4,3.4,0,0,0,1.94-1.94Z"/><path class="cls-39" d="M876,580.18l-21.8.69-5.49-.56c-.49-.27-.66-.54-.51-.83s.31-.43.47-.43l27.21-.12A1.22,1.22,0,0,1,876,580.18Z"/><path class="cls-40" d="M806.06,578.77l12.58.18c.5.31.67.62.51.95s-.32.49-.48.49c-8.43-.15-16.86,1.29-25.28-.11C797.46,578.44,802,580.43,806.06,578.77Z"/><path class="cls-31" d="M696.26,957.76c2.69,0,5.54-1,7.86,1.25C701.39,959.32,698.67,959.49,696.26,957.76Z"/><path class="cls-1" d="M864.77,82.26c2,0,4.11-.43,5.52,1.58A6.58,6.58,0,0,1,864.77,82.26Z"/><path class="cls-1" d="M872.27,16c-2,0-4,.42-5.48-1.48A6.39,6.39,0,0,1,872.27,16Z"/><path class="cls-1" d="M850.44,78.69c2,0,4.08-.44,5.54,1.48A6.71,6.71,0,0,1,850.44,78.69Z"/><path class="cls-1" d="M856.33,12.41c-2,.06-4.09.49-5.61-1.39A7,7,0,0,1,856.33,12.41Z"/><path class="cls-1" d="M858.76,80.65c1.65-.19,3.25-.21,4.38,1.33C861.49,82.17,859.93,82.05,858.76,80.65Z"/><path class="cls-25" d="M289.82,241.29c-.13,1.55-.59,2.87-2.28,3.34A4.4,4.4,0,0,1,289.82,241.29Z"/><path class="cls-9" d="M1168.68,768.28c-.07,1.44-.41,2.74-1.83,3.47A3.92,3.92,0,0,1,1168.68,768.28Z"/><path class="cls-29" d="M879.21,868.44a3.76,3.76,0,0,1-3.48,1.59A3.69,3.69,0,0,1,879.21,868.44Z"/><path class="cls-16" d="M440.08,1002.12c1.43.13,2.68.55,3.25,2A4,4,0,0,1,440.08,1002.12Z"/><path class="cls-41" d="M71.54,909.42c1.46-.1,2.83,0,3.8,1.32A3.94,3.94,0,0,1,71.54,909.42Z"/><path class="cls-1" d="M863.87,14.08c-1.58.18-3.11.19-4.21-1.24A4.4,4.4,0,0,1,863.87,14.08Z"/><path class="cls-14" d="M604.13,18.09c-1.12,1.53-2.71,1.51-4.36,1.33C600.93,18,602.48,17.9,604.13,18.09Z"/><path class="cls-28" d="M507.58,855.44a2.66,2.66,0,0,1-2,1.95A2.59,2.59,0,0,1,507.58,855.44Z"/><path class="cls-42" d="M1136.57,413.06l-1.23,1.28A1.25,1.25,0,0,1,1136.57,413.06Z"/><path class="cls-9" d="M1172,762a3,3,0,0,1-1.38,2.57A2.54,2.54,0,0,1,1172,762Z"/><path class="cls-42" d="M1138.34,411.17l-1.51,1.59A1.64,1.64,0,0,1,1138.34,411.17Z"/><path class="cls-9" d="M1170.17,765.49a3.19,3.19,0,0,1-1.46,2.71A2.76,2.76,0,0,1,1170.17,765.49Z"/><path class="cls-42" d="M1140.13,409.37l-1.58,1.59A1.72,1.72,0,0,1,1140.13,409.37Z"/><path class="cls-26" d="M402,773a2.11,2.11,0,0,1-2,2A2.51,2.51,0,0,1,402,773Z"/><path class="cls-42" d="M1141.92,407.63l-1.6,1.55A1.66,1.66,0,0,1,1141.92,407.63Z"/><path class="cls-16" d="M443.26,919.75a2.55,2.55,0,0,1-1.94,1.94A2.38,2.38,0,0,1,443.26,919.75Z"/><path class="cls-26" d="M400.25,774.82A2.52,2.52,0,0,1,398,776.9,3.2,3.2,0,0,1,400.25,774.82Z"/><path class="cls-16" d="M441.48,921.53a2.67,2.67,0,0,1-2,2A2.57,2.57,0,0,1,441.48,921.53Z"/><path class="cls-5" d="M311.24,705.29l2.1-1.2A1.75,1.75,0,0,1,311.24,705.29Z"/><path class="cls-25" d="M291.4,239.1l-1.53,2.11A2.08,2.08,0,0,1,291.4,239.1Z"/><path class="cls-23" d="M343.51,201.81l-1.89-1.91A2.35,2.35,0,0,1,343.51,201.81Z"/><path class="cls-42" d="M1140.49,551.93a3.12,3.12,0,0,1,1.23,1.24A1.2,1.2,0,0,1,1140.49,551.93Z"/><path class="cls-42" d="M1138.72,550.16l1.42,1.42A1.51,1.51,0,0,1,1138.72,550.16Z"/><path class="cls-10" d="M982.1,732.69a2.47,2.47,0,0,1,2.24,2.12A3.15,3.15,0,0,1,982.1,732.69Z"/><path class="cls-36" d="M943.5,832.86l-1.82,1.39A1.71,1.71,0,0,1,943.5,832.86Z"/><path class="cls-5" d="M313.38,523.17,311.25,522A1.75,1.75,0,0,1,313.38,523.17Z"/><path class="cls-9" d="M1173.75,758.44a3,3,0,0,1-1.37,2.56A2.5,2.5,0,0,1,1173.75,758.44Z"/><path class="cls-36" d="M943.6,1055.53a2.27,2.27,0,0,1,2.22-1.16A1.86,1.86,0,0,1,943.6,1055.53Z"/><path class="cls-43" d="M313.24,523.06l.05.07.09,0Z"/><path class="cls-43" d="M313.34,704.09l-.09,0,0,.06Z"/><path class="cls-43" d="M313.29,523.13a8.41,8.41,0,0,1-2-1.11c-16.85-8.17-34.68-10.38-52.95-7.53-41.05,6.43-69.57,29.45-81.93,68.87S173.73,658.22,203.61,687c28.56,27.52,73.68,34.7,107.63,18.27a11.75,11.75,0,0,1,2-1.15c2.82-3.86,2.64-8.36,2.64-12.8q.06-77.7,0-155.4C315.89,531.5,316,527,313.29,523.13Zm-9.16,98.55a.85.85,0,0,0-.26,1.27c-.69,1.31-.55,2.94-1.64,4.09v0c-1,1-.72,2.65-1.82,3.6l0-.05a6.81,6.81,0,0,0-1.31,1.8c-4.55,5.15-9.49,9.79-16.11,12.24-15.61,5.78-32.9-1.2-40.66-16.41a32.86,32.86,0,0,1,10.95-41.79,32.44,32.44,0,0,1,43.37,6c2.09,2.48,3.8,5.28,5.69,7.93.95,1.13.71,2.73,1.55,3.9a1.16,1.16,0,0,0,.29,1.47A36.78,36.78,0,0,1,304.13,621.68Z"/><path class="cls-5" d="M304.13,621.68l.09-16A17,17,0,0,1,304.13,621.68Z"/><path class="cls-5" d="M303.93,604.17a4.08,4.08,0,0,1-1.55-3.9C303.88,601.18,304,602.63,303.93,604.17Z"/><path class="cls-5" d="M302.23,627c0-1.59.25-3.06,1.64-4.09C304,624.59,303.88,626.12,302.23,627Z"/><path class="cls-5" d="M300.42,630.6a4.11,4.11,0,0,1,1.82-3.6C302.24,628.51,301.92,629.85,300.42,630.6Z"/><path class="cls-5" d="M299.14,632.35a1.66,1.66,0,0,1,1.31-1.8Z"/><path class="cls-44" d="M818.67,580.39a3.54,3.54,0,0,1,0-1.45,5.94,5.94,0,0,0,1.66-.36l28.41.47a5.91,5.91,0,0,1,0,1.26Z"/><path class="cls-45" d="M1483.7,262.3c-6.51-39.54-31.64-65.06-69.13-77.84-18-6.14-36.66-6.88-55.09-.57a33.09,33.09,0,0,0-5.2.94c-27.4,9.53-47.79,27.11-59.84,53.6-3.09,6.77-7.21,9.29-14.3,9.16-8-.15-16-.73-24,.45-3.11,3.76-2.82,8.29-2.84,12.73-.08,13.34-.15,26.68,0,40,.08,6.44-2.53,9.31-8.95,9-3-.15-5.93,0-8.89,0-37.06.14-74.12-.29-111.18.23-7.35-.29-14.71-.34-22,0-3.28.16-7.37-.58-8.62,4.14,1.78.08,3.56.23,5.34.24,60.73,0,121.47.11,182.2-.15,7,0,11,2,13.64,8.51a85.63,85.63,0,0,0,18.54,27.12c13.39,13.63,28.91,23.62,48,27.14,13,4.41,26.17,4.11,39.54,2C1453.26,370.9,1493.71,323.14,1483.7,262.3ZM1410.92,305c-12.12,10.15-28.41,10.51-41,.89-1.63-1.26-3.24-2.55-4.86-3.82-.6-1-1.15-2-1.81-3-8.84-12.93-8.58-25.85,0-38.76.65-1,1.22-2,1.84-3h0c4.95-3.72,9.75-7.56,16-9.19A32.86,32.86,0,0,1,1410.92,305Z"/><path class="cls-46" d="M1298.41,433.55c-14.81-27.67-37.91-45-69-51-33.44-7-62.38,1.74-87.21,24.89.62,14.52.34,29.05.43,43.58.2,34.4-.46,68.8.33,103.19,24.68,22.82,53.55,30.7,86.44,24.25C1296,566.21,1329.74,492.1,1298.41,433.55Zm-68,72.74c-2.12,1.56-4.27,3.09-6.41,4.63-5.78,1.1-11.28,3.48-17.44,2.58-19.08-2.79-32.28-20.64-28.75-39.18S1200,444,1218.9,448.74c1.72.43,3.4,1,5.1,1.46,7,4.62,13,9.87,16.53,17.86C1247.17,483.2,1239.47,499.59,1230.39,506.29Z"/><path class="cls-41" d="M146.16,735.41c0-4.13.2-8.38-2.88-11.79-7.66-4.92-16.42-6.87-25.16-8.21-15.61-2.39-31.29-3.22-46.49,2.67h0a12,12,0,0,0-5.17,1C-1.61,742.84-22.48,831.44,27.86,883.45,40,896,54.15,905.52,71.54,909.42c1.14.81,2.63.6,3.8,1.32l1.85.23c23,6.09,45,3.43,66.09-7.22,2.61-3.56,2.9-7.67,2.9-11.87Q146.23,813.64,146.16,735.41ZM121.65,839.58c-10.83,9.6-25.14,11.09-37.88,3.95L79.14,841c-.54-.69-1-1.41-1.64-2.06-13.74-15.26-14.26-30.47-1.57-46.4.55-.69,1-1.43,1.55-2.15,6.45-4.27,13-8,21.15-8.17a33.29,33.29,0,0,1,32,21C135.63,815.64,132,830.44,121.65,839.58Z"/><path class="cls-47" d="M885.4,749.39c5-3.74,9.65-6.86,10-12.91.75-14.57,1.14-29.18-.16-43.71-.83-9.28-5-12.9-14.32-14.18a46.5,46.5,0,0,0-6.22-.55c-14.29,0-28.58-.08-42.87,0-6.26,0-6.4.15-6.41,6.37q-.06,72.79,0,145.58c0,6,.14,6,6.57,6.07q21,.08,42,0c17.66-.07,21.56-3.75,21.85-21.43.26-16.07-.21-32.15.19-48.22C896.16,758.51,894.13,752.53,885.4,749.39Zm-33.48-48.11q8.45-.12,16.89,0a3,3,0,0,1,3.26,3.28q0,14.67,0,29.35a4.16,4.16,0,0,1-2.54,4.2c-6.55,3.24-13,6.63-20.65,10.54,0-15.56,0-29.69,0-43.82C848.9,702.7,849.74,701.31,851.92,701.28Zm16,111.56c-6.13-.47-13.79,2.55-18-1.49-3.43-3.32-2.23-10.57-2.54-16.16a15.1,15.1,0,0,1,0-1.78c.41-6.18-1.13-14.26,2.88-18.32,5.33-5.41,13.4-8.29,22-11.32,0,15.59-.06,30.39,0,45.18C872.32,812.27,870.71,813.05,867.9,812.84Z"/></g></g></svg>